<svg viewBox="0 0 16 16" fill="none" xmlns="http://www.w3.org/2000/svg">
<path fill-rule="evenodd" clip-rule="evenodd" d="M12.5 4.5C12.5 6.98528 10.4853 9 8 9C5.51472 9 3.5 6.98528 3.5 4.5C3.5 2.01472 5.51472 0 8 0C10.4853 0 12.5 2.01472 12.5 4.5ZM11.5 4.5C11.5 6.433 9.933 8 8 8C6.067 8 4.5 6.433 4.5 4.5C4.5 2.567 6.067 1 8 1C9.933 1 11.5 2.567 11.5 4.5Z" fill="#191C1F"/>
<path d="M8.00012 11C5.43752 11 3.58629 11.5121 2.29562 12.3273C0.996693 13.1476 0.295477 14.257 0.015047 15.3787C-0.0519274 15.6466 0.110953 15.9181 0.37885 15.9851C0.646748 16.052 0.918215 15.8892 0.985189 15.6213C1.20476 14.743 1.75354 13.8524 2.82961 13.1727C3.91394 12.4879 5.56272 12 8.00012 12C10.4375 12 12.0863 12.4879 13.1706 13.1727C14.2467 13.8524 14.7955 14.743 15.015 15.6213C15.082 15.8892 15.3535 16.052 15.6214 15.9851C15.8893 15.9181 16.0522 15.6466 15.9852 15.3787C15.7048 14.257 15.0035 13.1476 13.7046 12.3273C12.4139 11.5121 10.5627 11 8.00012 11Z" fill="#191C1F"/>
</svg>
