<svg viewBox="0 0 3997 871" fill="none" xmlns="http://www.w3.org/2000/svg">
<rect y="12" width="859" height="859" rx="78" fill="#00D98A"/>
<path d="M522.574 323.96C520.528 303.335 511.75 287.312 496.239 275.892C480.727 264.472 459.676 258.761 433.085 258.761C415.017 258.761 399.761 261.318 387.318 266.432C374.875 271.375 365.33 278.278 358.682 287.142C352.205 296.006 348.966 306.062 348.966 317.312C348.625 326.688 350.585 334.869 354.847 341.858C359.278 348.847 365.33 354.898 373 360.011C380.67 364.955 389.534 369.301 399.591 373.051C409.648 376.631 420.386 379.699 431.807 382.256L478.852 393.506C501.693 398.619 522.659 405.437 541.75 413.96C560.841 422.483 577.375 432.966 591.352 445.409C605.33 457.852 616.153 472.511 623.824 489.386C631.665 506.261 635.67 525.608 635.841 547.426C635.67 579.472 627.489 607.256 611.295 630.778C595.273 654.131 572.091 672.284 541.75 685.239C511.58 698.023 475.188 704.415 432.574 704.415C390.301 704.415 353.483 697.938 322.119 684.983C290.926 672.028 266.551 652.852 248.994 627.455C231.608 601.886 222.489 570.267 221.636 532.597H328.767C329.96 550.153 334.989 564.812 343.852 576.574C352.886 588.165 364.903 596.943 379.903 602.909C395.074 608.705 412.205 611.602 431.295 611.602C450.045 611.602 466.324 608.875 480.131 603.42C494.108 597.966 504.932 590.381 512.602 580.665C520.273 570.949 524.108 559.784 524.108 547.17C524.108 535.409 520.614 525.523 513.625 517.511C506.807 509.5 496.75 502.682 483.455 497.057C470.33 491.432 454.222 486.318 435.131 481.716L378.114 467.398C333.966 456.659 299.108 439.869 273.54 417.028C247.972 394.187 235.273 363.42 235.443 324.727C235.273 293.023 243.71 265.324 260.756 241.631C277.972 217.937 301.58 199.443 331.58 186.148C361.58 172.852 395.67 166.205 433.852 166.205C472.716 166.205 506.636 172.852 535.614 186.148C564.761 199.443 587.432 217.937 603.625 241.631C619.818 265.324 628.17 292.767 628.682 323.96H522.574Z" fill="white"/>
<path d="M1431.04 403.953H1334.6C1332.84 391.477 1329.25 380.395 1323.82 370.707C1318.38 360.873 1311.41 352.507 1302.9 345.608C1294.39 338.709 1284.55 333.425 1273.4 329.756C1262.39 326.086 1250.43 324.251 1237.51 324.251C1214.17 324.251 1193.84 330.049 1176.52 341.645C1159.2 353.094 1145.77 369.827 1136.23 391.844C1126.69 413.714 1121.92 440.281 1121.92 471.545C1121.92 503.69 1126.69 530.698 1136.23 552.568C1145.92 574.438 1159.42 590.951 1176.74 602.107C1194.06 613.262 1214.1 618.839 1236.85 618.839C1249.62 618.839 1261.43 617.152 1272.3 613.776C1283.3 610.4 1293.06 605.482 1301.58 599.024C1310.09 592.419 1317.14 584.42 1322.71 575.026C1328.44 565.632 1332.4 554.917 1334.6 542.881L1431.04 543.321C1428.54 564.017 1422.3 583.979 1412.32 603.207C1402.49 622.289 1389.21 639.389 1372.47 654.507C1355.89 669.479 1336.07 681.368 1313.03 690.175C1290.13 698.835 1264.22 703.165 1235.31 703.165C1195.09 703.165 1159.13 694.064 1127.42 675.864C1095.87 657.663 1070.91 631.316 1052.57 596.822C1034.36 562.329 1025.26 520.57 1025.26 471.545C1025.26 422.374 1034.51 380.542 1053.01 346.048C1071.5 311.555 1096.6 285.281 1128.3 267.227C1160.01 249.027 1195.68 239.926 1235.31 239.926C1261.43 239.926 1285.65 243.596 1307.96 250.935C1330.42 258.274 1350.31 268.989 1367.63 283.08C1384.95 297.024 1399.04 314.124 1409.9 334.379C1420.91 354.635 1427.96 377.826 1431.04 403.953ZM1913.76 471.545C1913.76 520.717 1904.44 562.549 1885.8 597.043C1867.31 631.536 1842.06 657.883 1810.06 676.084C1778.21 694.138 1742.4 703.165 1702.62 703.165C1662.55 703.165 1626.59 694.064 1594.74 675.864C1562.88 657.663 1537.71 631.316 1519.22 596.822C1500.72 562.329 1491.48 520.57 1491.48 471.545C1491.48 422.374 1500.72 380.542 1519.22 346.048C1537.71 311.555 1562.88 285.281 1594.74 267.227C1626.59 249.027 1662.55 239.926 1702.62 239.926C1742.4 239.926 1778.21 249.027 1810.06 267.227C1842.06 285.281 1867.31 311.555 1885.8 346.048C1904.44 380.542 1913.76 422.374 1913.76 471.545ZM1817.11 471.545C1817.11 439.694 1812.34 412.833 1802.8 390.963C1793.4 369.093 1780.12 352.507 1762.95 341.205C1745.77 329.902 1725.66 324.251 1702.62 324.251C1679.57 324.251 1659.47 329.902 1642.29 341.205C1625.12 352.507 1611.76 369.093 1602.22 390.963C1592.83 412.833 1588.13 439.694 1588.13 471.545C1588.13 503.397 1592.83 530.258 1602.22 552.128C1611.76 573.998 1625.12 590.584 1642.29 601.886C1659.47 613.188 1679.57 618.839 1702.62 618.839C1725.66 618.839 1745.77 613.188 1762.95 601.886C1780.12 590.584 1793.4 573.998 1802.8 552.128C1812.34 530.258 1817.11 503.397 1817.11 471.545ZM2262.9 246.091H2358.23V538.918C2358.23 571.796 2350.38 600.565 2334.67 625.224C2319.11 649.884 2297.32 669.112 2269.28 682.909C2241.25 696.56 2208.59 703.385 2171.31 703.385C2133.88 703.385 2101.15 696.56 2073.11 682.909C2045.08 669.112 2023.28 649.884 2007.72 625.224C1992.16 600.565 1984.38 571.796 1984.38 538.918V246.091H2079.72V530.771C2079.72 547.945 2083.46 563.21 2090.94 576.567C2098.58 589.924 2109.29 600.419 2123.09 608.051C2136.89 615.684 2152.96 619.5 2171.31 619.5C2189.8 619.5 2205.87 615.684 2219.52 608.051C2233.32 600.419 2243.96 589.924 2251.45 576.567C2259.08 563.21 2262.9 547.945 2262.9 530.771V246.091ZM2436.67 697V246.091H2614.56C2648.62 246.091 2677.68 252.182 2701.75 264.365C2725.97 276.401 2744.39 293.501 2757.01 315.665C2769.78 337.682 2776.17 363.589 2776.17 393.385C2776.17 423.328 2769.71 449.088 2756.79 470.665C2743.88 492.095 2725.16 508.534 2700.65 519.983C2676.29 531.432 2646.78 537.156 2612.14 537.156H2493.03V460.537H2596.73C2614.93 460.537 2630.05 458.042 2642.09 453.051C2654.12 448.061 2663.08 440.575 2668.95 430.594C2674.96 420.613 2677.97 408.21 2677.97 393.385C2677.97 378.413 2674.96 365.79 2668.95 355.516C2663.08 345.241 2654.05 337.462 2641.87 332.178C2629.83 326.747 2614.64 324.031 2596.29 324.031H2532V697H2436.67ZM2680.18 491.801L2792.24 697H2687L2577.36 491.801H2680.18ZM3088.15 375.771C3086.39 358.011 3078.83 344.214 3065.47 334.379C3052.12 324.545 3033.99 319.628 3011.09 319.628C2995.53 319.628 2982.4 321.83 2971.68 326.233C2960.97 330.49 2952.75 336.434 2947.02 344.067C2941.44 351.699 2938.66 360.359 2938.66 370.047C2938.36 378.12 2940.05 385.165 2943.72 391.183C2947.54 397.201 2952.75 402.412 2959.35 406.815C2965.96 411.072 2973.59 414.815 2982.25 418.044C2990.91 421.126 3000.16 423.768 3009.99 425.97L3050.5 435.658C3070.17 440.061 3088.22 445.932 3104.66 453.271C3121.1 460.61 3135.34 469.637 3147.38 480.352C3159.41 491.067 3168.73 503.69 3175.34 518.222C3182.09 532.753 3185.54 549.412 3185.69 568.2C3185.54 595.795 3178.49 619.72 3164.55 639.976C3150.75 660.085 3130.79 675.717 3104.66 686.872C3078.68 697.881 3047.35 703.385 3010.65 703.385C2974.25 703.385 2942.55 697.807 2915.54 686.652C2888.68 675.497 2867.69 658.984 2852.57 637.114C2837.6 615.097 2829.74 587.869 2829.01 555.43H2921.26C2922.29 570.549 2926.62 583.172 2934.25 593.3C2942.03 603.281 2952.38 610.84 2965.3 615.977C2978.36 620.968 2993.11 623.463 3009.55 623.463C3025.7 623.463 3039.71 621.115 3051.6 616.418C3063.64 611.721 3072.96 605.189 3079.56 596.822C3086.17 588.456 3089.47 578.842 3089.47 567.98C3089.47 557.852 3086.46 549.339 3080.45 542.44C3074.57 535.542 3065.91 529.67 3054.47 524.827C3043.16 519.983 3029.29 515.58 3012.85 511.616L2963.75 499.287C2925.74 490.04 2895.72 475.582 2873.71 455.913C2851.69 436.245 2840.75 409.751 2840.9 376.432C2840.75 349.131 2848.02 325.279 2862.7 304.876C2877.52 284.474 2897.85 268.548 2923.68 257.099C2949.52 245.651 2978.87 239.926 3011.75 239.926C3045.22 239.926 3074.43 245.651 3099.38 257.099C3124.48 268.548 3144 284.474 3157.95 304.876C3171.89 325.279 3179.08 348.91 3179.52 375.771H3088.15ZM3249.81 697V246.091H3553.65V324.692H3345.15V432.135H3538.01V510.736H3345.15V618.399H3554.53V697H3249.81ZM3874.05 375.771C3872.29 358.011 3864.73 344.214 3851.37 334.379C3838.02 324.545 3819.89 319.628 3796.99 319.628C3781.43 319.628 3768.29 321.83 3757.58 326.233C3746.86 330.49 3738.64 336.434 3732.92 344.067C3727.34 351.699 3724.55 360.359 3724.55 370.047C3724.26 378.12 3725.95 385.165 3729.62 391.183C3733.43 397.201 3738.64 402.412 3745.25 406.815C3751.86 411.072 3759.49 414.815 3768.15 418.044C3776.81 421.126 3786.05 423.768 3795.89 425.97L3836.4 435.658C3856.07 440.061 3874.12 445.932 3890.56 453.271C3907 460.61 3921.24 469.637 3933.28 480.352C3945.31 491.067 3954.63 503.69 3961.24 518.222C3967.99 532.753 3971.44 549.412 3971.59 568.2C3971.44 595.795 3964.39 619.72 3950.45 639.976C3936.65 660.085 3916.69 675.717 3890.56 686.872C3864.58 697.881 3833.24 703.385 3796.55 703.385C3760.15 703.385 3728.44 697.807 3701.44 686.652C3674.58 675.497 3653.59 658.984 3638.47 637.114C3623.5 615.097 3615.64 587.869 3614.91 555.43H3707.16C3708.19 570.549 3712.52 583.172 3720.15 593.3C3727.93 603.281 3738.28 610.84 3751.19 615.977C3764.26 620.968 3779.01 623.463 3795.45 623.463C3811.59 623.463 3825.61 621.115 3837.5 616.418C3849.54 611.721 3858.86 605.189 3865.46 596.822C3872.07 588.456 3875.37 578.842 3875.37 567.98C3875.37 557.852 3872.36 549.339 3866.34 542.44C3860.47 535.542 3851.81 529.67 3840.36 524.827C3829.06 519.983 3815.19 515.58 3798.75 511.616L3749.65 499.287C3711.64 490.04 3681.62 475.582 3659.6 455.913C3637.59 436.245 3626.65 409.751 3626.8 376.432C3626.65 349.131 3633.92 325.279 3648.6 304.876C3663.42 284.474 3683.75 268.548 3709.58 257.099C3735.42 245.651 3764.77 239.926 3797.65 239.926C3831.12 239.926 3860.33 245.651 3885.28 257.099C3910.38 268.548 3929.9 284.474 3943.84 304.876C3957.79 325.279 3964.98 348.91 3965.42 375.771H3874.05Z" fill="#00D98A"/>
</svg>
