<svg viewBox="0 0 4206 871" fill="none" xmlns="http://www.w3.org/2000/svg">
<rect y="12" width="859" height="859" rx="78" fill="#00D98A"/>
<path d="M522.574 323.96C520.528 303.335 511.75 287.312 496.239 275.892C480.727 264.472 459.676 258.761 433.085 258.761C415.017 258.761 399.761 261.318 387.318 266.432C374.875 271.375 365.33 278.278 358.682 287.142C352.205 296.006 348.966 306.062 348.966 317.312C348.625 326.688 350.585 334.869 354.847 341.858C359.278 348.847 365.33 354.898 373 360.011C380.67 364.955 389.534 369.301 399.591 373.051C409.648 376.631 420.386 379.699 431.807 382.256L478.852 393.506C501.693 398.619 522.659 405.437 541.75 413.96C560.841 422.483 577.375 432.966 591.352 445.409C605.33 457.852 616.153 472.511 623.824 489.386C631.665 506.261 635.67 525.608 635.841 547.426C635.67 579.472 627.489 607.256 611.295 630.778C595.273 654.131 572.091 672.284 541.75 685.239C511.58 698.023 475.188 704.415 432.574 704.415C390.301 704.415 353.483 697.938 322.119 684.983C290.926 672.028 266.551 652.852 248.994 627.455C231.608 601.886 222.489 570.267 221.636 532.597H328.767C329.96 550.153 334.989 564.812 343.852 576.574C352.886 588.165 364.903 596.943 379.903 602.909C395.074 608.705 412.205 611.602 431.295 611.602C450.045 611.602 466.324 608.875 480.131 603.42C494.108 597.966 504.932 590.381 512.602 580.665C520.273 570.949 524.108 559.784 524.108 547.17C524.108 535.409 520.614 525.523 513.625 517.511C506.807 509.5 496.75 502.682 483.455 497.057C470.33 491.432 454.222 486.318 435.131 481.716L378.114 467.398C333.966 456.659 299.108 439.869 273.54 417.028C247.972 394.187 235.273 363.42 235.443 324.727C235.273 293.023 243.71 265.324 260.756 241.631C277.972 217.937 301.58 199.443 331.58 186.148C361.58 172.852 395.67 166.205 433.852 166.205C472.716 166.205 506.636 172.852 535.614 186.148C564.761 199.443 587.432 217.937 603.625 241.631C619.818 265.324 628.17 292.767 628.682 323.96H522.574Z" fill="white"/>
<path d="M1110.91 697H1008.75L1164.41 246.091H1287.27L1442.71 697H1340.55L1227.6 349.131H1224.08L1110.91 697ZM1104.53 519.763H1345.83V594.18H1104.53V519.763ZM1873.64 403.953H1777.2C1775.44 391.477 1771.84 380.395 1766.41 370.707C1760.98 360.873 1754.01 352.507 1745.5 345.608C1736.98 338.709 1727.15 333.425 1715.99 329.756C1704.99 326.086 1693.02 324.251 1680.11 324.251C1656.77 324.251 1636.44 330.049 1619.12 341.645C1601.8 353.094 1588.37 369.827 1578.83 391.844C1569.29 413.714 1564.52 440.281 1564.52 471.545C1564.52 503.69 1569.29 530.698 1578.83 552.568C1588.52 574.438 1602.02 590.951 1619.34 602.107C1636.66 613.262 1656.69 618.839 1679.45 618.839C1692.22 618.839 1704.03 617.152 1714.89 613.776C1725.9 610.4 1735.66 605.482 1744.18 599.024C1752.69 592.419 1759.73 584.42 1765.31 575.026C1771.04 565.632 1775 554.917 1777.2 542.881L1873.64 543.321C1871.14 564.017 1864.9 583.979 1854.92 603.207C1845.09 622.289 1831.8 639.389 1815.07 654.507C1798.48 669.479 1778.67 681.368 1755.62 690.175C1732.73 698.835 1706.82 703.165 1677.9 703.165C1637.69 703.165 1601.73 694.064 1570.02 675.864C1538.46 657.663 1513.51 631.316 1495.16 596.822C1476.96 562.329 1467.86 520.57 1467.86 471.545C1467.86 422.374 1477.11 380.542 1495.6 346.048C1514.1 311.555 1539.2 285.281 1570.9 267.227C1602.61 249.027 1638.27 239.926 1677.9 239.926C1704.03 239.926 1728.25 243.596 1750.56 250.935C1773.02 258.274 1792.91 268.989 1810.23 283.08C1827.55 297.024 1841.64 314.124 1852.5 334.379C1863.51 354.635 1870.55 377.826 1873.64 403.953ZM2011.24 697H1909.08L2064.74 246.091H2187.6L2343.04 697H2240.88L2127.93 349.131H2124.41L2011.24 697ZM2004.86 519.763H2246.16V594.18H2004.86V519.763ZM2557.16 697H2397.31V246.091H2558.48C2603.83 246.091 2642.87 255.118 2675.61 273.172C2708.34 291.079 2733.51 316.839 2751.13 350.452C2768.89 384.064 2777.77 424.282 2777.77 471.105C2777.77 518.075 2768.89 558.439 2751.13 592.199C2733.51 625.958 2708.19 651.865 2675.17 669.919C2642.29 687.973 2602.95 697 2557.16 697ZM2492.65 615.317H2553.19C2581.37 615.317 2605.08 610.326 2624.31 600.345C2643.68 590.217 2658.21 574.585 2667.9 553.449C2677.74 532.166 2682.65 504.718 2682.65 471.105C2682.65 437.786 2677.74 410.558 2667.9 389.422C2658.21 368.286 2643.76 352.727 2624.53 342.746C2605.3 332.765 2581.59 327.774 2553.41 327.774H2492.65V615.317ZM2848.39 697V246.091H3152.22V324.692H2943.72V432.135H3136.59V510.736H2943.72V618.399H3153.1V697H2848.39ZM3228.01 246.091H3345.59L3469.76 549.045H3475.05L3599.22 246.091H3716.79V697H3624.32V403.513H3620.58L3503.89 694.798H3440.92L3324.23 402.412H3320.49V697H3228.01V246.091ZM3768.92 246.091H3875.7L3978.52 440.281H3982.92L4085.74 246.091H4192.53L4028.06 537.597V697H3933.39V537.597L3768.92 246.091Z" fill="#00D98A"/>
</svg>
